<?xml version="1.0" encoding="UTF-8" standalone="no"?>
<!DOCTYPE svg PUBLIC "-//W3C//DTD SVG 1.1//EN" "http://www.w3.org/Graphics/SVG/1.1/DTD/svg11.dtd">
<svg width="100%" height="100%" viewBox="0 0 100 55" version="1.1" xmlns="http://www.w3.org/2000/svg" xmlns:xlink="http://www.w3.org/1999/xlink" xml:space="preserve" xmlns:serif="http://www.serif.com/" style="fill-rule:evenodd;clip-rule:evenodd;stroke-linejoin:round;stroke-miterlimit:2;">
    <g transform="matrix(1,0,0,1.1,0,3.55271e-15)">
        <path d="M100,4.545C100,3.34 99.473,2.184 98.536,1.331C97.598,0.479 96.326,-0 95,0L5,0C3.674,-0 2.402,0.479 1.464,1.331C0.527,2.184 -0,3.34 0,4.545L0,45.455C-0,46.66 0.527,47.816 1.464,48.669C2.402,49.521 3.674,50 5,50L95,50C96.326,50 97.598,49.521 98.536,48.669C99.473,47.816 100,46.66 100,45.455L100,4.545Z" style="fill:rgb(235,235,235);"/>
    </g>
</svg>
