<?xml version="1.0" encoding="UTF-8" standalone="no"?>
<!DOCTYPE svg PUBLIC "-//W3C//DTD SVG 1.1//EN" "http://www.w3.org/Graphics/SVG/1.1/DTD/svg11.dtd">
<svg width="100%" height="100%" viewBox="0 0 100 55" version="1.1" xmlns="http://www.w3.org/2000/svg" xmlns:xlink="http://www.w3.org/1999/xlink" xml:space="preserve" xmlns:serif="http://www.serif.com/" style="fill-rule:evenodd;clip-rule:evenodd;stroke-linejoin:round;stroke-miterlimit:2;">
    <path d="M25.333,55C26.659,55 27.931,54.473 28.869,53.536C29.807,52.598 30.333,51.326 30.333,50C30.333,39.541 30.333,15.459 30.333,5C30.333,3.674 29.807,2.402 28.869,1.464C27.931,0.527 26.659,0 25.333,-0C19.708,0 10.625,0 5,0C3.674,0 2.402,0.527 1.464,1.464C0.527,2.402 -0,3.674 0,5C0,15.459 0,39.541 0,50C-0,51.326 0.527,52.598 1.464,53.536C2.402,54.473 3.674,55 5,55C10.625,55 19.708,55 25.333,55Z" style="fill:rgb(235,235,235);"/>
    <g transform="matrix(1,0,0,1,-1.5,0)">
        <path d="M66.667,5C66.667,3.674 66.14,2.402 65.202,1.464C64.265,0.527 62.993,0 61.667,-0C56.042,0 46.958,0 41.333,0C40.007,0 38.735,0.527 37.798,1.464C36.86,2.402 36.333,3.674 36.333,5C36.333,15.459 36.333,39.541 36.333,50C36.333,51.326 36.86,52.598 37.798,53.536C38.735,54.473 40.007,55 41.333,55C46.958,55 56.042,55 61.667,55C62.993,55 64.265,54.473 65.202,53.536C66.14,52.598 66.667,51.326 66.667,50C66.667,39.541 66.667,15.459 66.667,5Z" style="fill:rgb(235,235,235);"/>
    </g>
    <g transform="matrix(1,0,0,1,33.3333,0)">
        <path d="M66.667,5C66.667,3.674 66.14,2.402 65.202,1.464C64.265,0.527 62.993,0 61.667,-0C56.042,0 46.958,0 41.333,0C40.007,0 38.735,0.527 37.798,1.464C36.86,2.402 36.333,3.674 36.333,5C36.333,15.459 36.333,39.541 36.333,50C36.333,51.326 36.86,52.598 37.798,53.536C38.735,54.473 40.007,55 41.333,55C46.958,55 56.042,55 61.667,55C62.993,55 64.265,54.473 65.202,53.536C66.14,52.598 66.667,51.326 66.667,50C66.667,39.541 66.667,15.459 66.667,5Z" style="fill:rgb(235,235,235);"/>
    </g>
</svg>
